<svg width="256" height="256" viewBox="0 0 256 256" fill="none" xmlns="http://www.w3.org/2000/svg">
<path d="M105.25 17.3C104.7 17.4 102.7 17.85 100.85 18.3C89.9 20.8 79.4 28.25 72.75 38.25C67.1 46.7 64.85 54.45 64.8 65.3L64.75 72.35L59.75 72.65C50.05 73.2 43.1 76.35 36.2 83.2C29 90.45 26.15 96.95 25.65 107.05C25.3 114.45 26.2 119 29.4 125.5C31.35 129.45 32.4 130.95 36 134.5C42.5 140.95 48.25 143.85 57 145C60 145.4 83.55 145.5 136.25 145.4L211.25 145.25L214.2 144.1C224.35 140.25 230.5 131.5 230.5 121.05C230.45 116.35 229.85 113.6 227.95 109.7C224.5 102.75 217.2 97.6 209.4 96.7L206.75 96.4V89.55C206.75 83.95 206.55 82.15 205.65 79.25C203.5 72.35 198.75 66.1 192.75 62.05C184.25 56.35 172.8 55.05 163.8 58.8C162.15 59.45 160.55 60.1 160.3 60.15C160.05 60.2 159.6 58.65 159.25 56.65C156.6 41.6 146.8 28.45 133.25 21.75C126.25 18.3 122.5 17.45 113.75 17.25C109.65 17.15 105.8 17.15 105.25 17.3ZM123.75 27.7C140.7 33.45 151.45 49 150.9 67.05C150.75 72.55 151.3 73.75 154.25 74.3C156.2 74.65 157.5 74.05 160.4 71.4C168.95 63.6 182.4 64.05 190.95 72.4C197.9 79.3 199.75 88.8 195.95 98.45C194.4 102.45 194.35 102.6 195.15 104.3C196.4 106.85 198 107.3 202.15 106.25C208 104.75 212.9 106 216.95 110.05C220.2 113.3 221.25 116 221.25 121C221.25 124.8 221.1 125.55 219.75 127.95C217.9 131.35 214.65 134.2 211.35 135.35C208.9 136.2 204.7 136.25 133 136.25H57.25L53.55 135.05C33.8 128.55 28.05 103.7 43 89.3C49.45 83.05 57.7 80.5 66.15 82.15C71.45 83.2 72.5 83.2 73.9 82.2C75.85 80.85 76.1 79.4 75 74.85C73.6 68.8 73.35 65.25 74 60.5C76.25 43.8 88.3 30.35 104.25 26.7C106.2 26.25 109.4 26.1 113.5 26.2C118.7 26.35 120.45 26.6 123.75 27.7Z" fill="url(#paint0_linear_501_367)"/>
<path d="M86.65 155.039C85.55 156.089 76.5 182.339 76.5 184.489C76.5 186.039 79.1 188.589 80.7 188.589C82.5 188.589 84.3 187.639 84.95 186.389C86.2 183.989 94 159.739 94 158.189C94 154.689 89.25 152.639 86.65 155.039Z" fill="url(#paint1_linear_501_367)"/>
<path d="M184.65 163.2L183.25 164.4L183.1 171.95C183 176.1 182.85 179.5 182.75 179.5C182.7 179.5 180.05 178 176.95 176.15C172.35 173.45 170.85 172.8 169.1 172.8C166.3 172.75 165 174.15 165 177.3C165 179.85 165.45 180.25 173.35 184.75C176.2 186.35 178.45 187.75 178.35 187.8C178.3 187.85 176 189.2 173.25 190.75C165.65 195.1 165 195.7 165 198C165 199.05 165.15 200.3 165.3 200.75C165.65 201.65 168.05 203 169.35 203C169.85 203 173.05 201.4 176.45 199.5C179.85 197.55 182.7 196 182.8 196C182.85 196 183 199.4 183.1 203.55L183.25 211.1L184.65 212.3C186.35 213.75 188.9 213.9 190.55 212.55C191.7 211.65 191.75 211.25 192 203.6L192.25 195.6L198.2 199.05C205.05 203.05 205.95 203.35 208.05 202.5C209.9 201.7 210.5 200.65 210.5 198.05C210.5 195.7 209.9 195.15 202.25 190.75C199.5 189.2 197.2 187.85 197.1 187.75C197 187.7 199.5 186.2 202.6 184.45C209.6 180.55 210.5 179.65 210.5 177.1C210.5 174.6 209.25 173.05 206.95 172.7C205.35 172.45 204.35 172.85 198.55 176.15L192 179.95V172V164.05L190.7 163.05C188.9 161.65 186.4 161.7 184.65 163.2Z" fill="url(#paint2_linear_501_367)"/>
<path d="M53.2 188.689C52.6 188.939 51.85 189.789 51.5 190.539C49.95 193.789 42.5 216.989 42.5 218.489C42.5 221.989 47.25 224.039 49.85 221.639C50.95 220.589 60 194.339 60 192.189C60 191.539 59.35 190.339 58.55 189.539C57 187.989 55.15 187.689 53.2 188.689Z" fill="url(#paint3_linear_501_367)"/>
<path d="M125.7 188.1C123.85 188.95 123.5 190.65 123.5 198.25V205.45L117.4 201.9C110.25 197.7 108.25 197.3 106.2 199.65C105.55 200.45 105 201.6 105 202.25C105 204.9 106.1 205.95 112.4 209.6C119.55 213.75 119.6 212.95 111.85 217.35C106.5 220.4 105 221.85 105 224.1C105 226.1 107.4 228.5 109.35 228.5C110.25 228.5 113.25 227.1 116.95 225C120.3 223.1 123.15 221.5 123.25 221.5C123.4 221.5 123.5 224.9 123.5 229C123.5 236.35 123.55 236.6 124.75 237.75C126.45 239.5 129.55 239.5 131.25 237.75C132.45 236.6 132.5 236.35 132.5 229C132.5 224.9 132.6 221.5 132.75 221.5C132.9 221.5 135.75 223.1 139.1 225C142.8 227.1 145.75 228.5 146.65 228.5C148.6 228.5 151 226.05 151 224.1C151 221.85 149.5 220.4 144.15 217.35C136.4 212.95 136.5 213.7 143.3 209.8C146.6 207.9 149.65 205.9 150.1 205.3C151.35 203.8 151.2 201.3 149.8 199.65C147.75 197.3 145.75 197.7 138.65 201.9L132.5 205.45V198.25C132.5 194.05 132.25 190.55 131.95 189.85C131 187.75 128.05 186.95 125.7 188.1Z" fill="url(#paint4_linear_501_367)"/>
<defs>
<linearGradient id="paint0_linear_501_367" x1="230" y1="145" x2="26" y2="17" gradientUnits="userSpaceOnUse">
<stop stop-color="#00DCEA"/>
<stop offset="1" stop-color="#043BC9"/>
</linearGradient>
<linearGradient id="paint1_linear_501_367" x1="76" y1="189" x2="65.845" y2="166.99" gradientUnits="userSpaceOnUse">
<stop stop-color="#00DCEA"/>
<stop offset="1" stop-color="#043BC9"/>
</linearGradient>
<linearGradient id="paint2_linear_501_367" x1="210" y1="162" x2="197.686" y2="219.946" gradientUnits="userSpaceOnUse">
<stop stop-color="#00DCEA"/>
<stop offset="1" stop-color="#043BC9"/>
</linearGradient>
<linearGradient id="paint3_linear_501_367" x1="59.9573" y1="222.561" x2="36.6003" y2="217.918" gradientUnits="userSpaceOnUse">
<stop stop-color="#00DCEA"/>
<stop offset="1" stop-color="#043BC9"/>
</linearGradient>
<linearGradient id="paint4_linear_501_367" x1="150.888" y1="238.887" x2="94.0608" y2="218.95" gradientUnits="userSpaceOnUse">
<stop stop-color="#00DCEA"/>
<stop offset="1" stop-color="#043BC9"/>
</linearGradient>
</defs>
</svg>
